<?xml version="1.0" encoding="utf-8"?>
<!-- Generator: Adobe Illustrator 23.1.1, SVG Export Plug-In . SVG Version: 6.00 Build 0)  -->
<svg version="1.1" id="Layer_1" xmlns="http://www.w3.org/2000/svg" xmlns:xlink="http://www.w3.org/1999/xlink" x="0px" y="0px"
	 viewBox="0 0 250 116.24" style="enable-background:new 0 0 250 116.24;" xml:space="preserve">
<style type="text/css">
	.st0{fill:#FFFFFF;}
</style>
<g>
	<path class="st0" d="M20.12,43.64h20.82v13H3.72V3.55h16.41V43.64z"/>
	<path class="st0" d="M74.97,17.06H68.7v26.3h6.27v13.29H46.03V43.36h6.27v-26.3h-6.27V3.55h28.95V17.06z"/>
	<path class="st0" d="M94.31,43.64h45.06v13H79.12V3.55h15.19V43.64z"/>
	<path class="st0" d="M158.05,43.64h45.06v13h-60.24V3.55h15.19V43.64z"/>
	<path class="st0" d="M235.41,17.06h-6.27v26.3h6.27v13.29h-28.95V43.36h6.27v-26.3h-6.27V3.55h28.95V17.06z"/>
	<path class="st0" d="M40.13,61.75c2.5,1.45,4.48,3.42,5.92,5.92c1.44,2.5,2.17,5.22,2.17,8.16v1.7c0,2.94-0.72,5.66-2.17,8.16
		c-1.45,2.5-3.42,4.48-5.92,5.92c-2.5,1.45-5.22,2.17-8.17,2.17h-12v18.89H3.72v-53.1h28.25C34.91,59.58,37.63,60.3,40.13,61.75z
		 M19.97,81.95h7.12c1.44,0,2.58-0.48,3.4-1.43c0.83-0.95,1.24-2.02,1.24-3.21v-0.93c0-1.19-0.4-2.26-1.2-3.21
		c-0.8-0.95-1.95-1.43-3.44-1.43h-7.12V81.95z"/>
	<path class="st0" d="M95.78,105.13c-1.73,2.66-4.17,4.71-7.31,6.15c-3.15,1.44-6.81,2.17-10.99,2.17h-3.33
		c-4.18,0-7.84-0.72-10.99-2.17c-3.15-1.44-5.59-3.5-7.31-6.15c-1.73-2.66-2.59-5.77-2.59-9.33V59.58h16.33v35.99
		c0,1.7,0.61,3.1,1.82,4.18c1.21,1.08,2.7,1.63,4.45,1.63c1.75,0,3.24-0.54,4.45-1.63c1.21-1.08,1.82-2.48,1.82-4.18V59.58h16.25
		V95.8C98.37,99.36,97.51,102.47,95.78,105.13z"/>
	<path class="st0" d="M146.59,72.35h-13.47v40.33h-16.1V72.35h-13.47V59.58h43.03V72.35z"/>
	<path class="st0" d="M191.95,72.35h-13.47v40.33h-16.1V72.35h-13.47V59.58h43.03V72.35z"/>
	<path class="st0" d="M234.71,62.09c3.53,2.09,6.35,4.9,8.44,8.44c2.09,3.54,3.13,7.42,3.13,11.65v8.05c0,4.23-1.04,8.12-3.13,11.65
		c-2.09,3.54-4.9,6.35-8.44,8.44c-3.54,2.09-7.42,3.14-11.65,3.14h-4.33c-4.23,0-8.12-1.05-11.65-3.14
		c-3.53-2.09-6.35-4.9-8.44-8.44c-2.09-3.53-3.14-7.42-3.14-11.65v-8.05c0-4.23,1.04-8.11,3.14-11.65c2.09-3.53,4.9-6.35,8.44-8.44
		c3.53-2.09,7.42-3.13,11.65-3.13h4.33C227.3,58.96,231.18,60,234.71,62.09z M215.25,73.12c-1.5,1.5-2.24,3.33-2.24,5.5v14.94
		c0,2.17,0.75,4,2.24,5.5c1.5,1.5,3.33,2.25,5.5,2.25h0.39c2.17,0,4-0.75,5.5-2.25c1.5-1.5,2.24-3.33,2.24-5.5V78.62
		c0-2.17-0.75-4-2.24-5.5c-1.5-1.5-3.33-2.24-5.5-2.24h-0.39C218.58,70.88,216.74,71.63,215.25,73.12z"/>
</g>
</svg>
